<?xml version="1.0" encoding="utf-8"?>
<!-- Generator: Adobe Illustrator 24.0.1, SVG Export Plug-In . SVG Version: 6.00 Build 0)  -->
<svg version="1.1" id="Layer_1" xmlns="http://www.w3.org/2000/svg" xmlns:xlink="http://www.w3.org/1999/xlink" x="0px" y="0px"
	 viewBox="0 0 202.8 88.2" style="enable-background:new 0 0 202.8 88.2;" xml:space="preserve">
<style type="text/css">
	.st0{fill:#62A823;enable-background:new    ;}
	.st1{fill:#FFFFFF;enable-background:new    ;}
	.st2{fill:#958117;enable-background:new    ;}
</style>
<path class="st0" d="M169.1,52.6c0,0,2.9-10.3,14.2-12.6c4.9-1.5,15.5-2.3,19.5-10.3c0,0,0.4,15.2-11,22c-3.1,1.4-10.6,5.4-20.3,2.8
	c-1.7-0.5-2.2-1-2.2-1s3.8-2.4,11-3.7c3.3-0.8,8.5-2,12.1-4.4c1.4-1,3.4-2.8,3.8-3.9c0.4-0.6,0.3-1.1,0.3-1.1s-2.7,4.4-11.5,6.4
	c-2.1,0.5-9.7,1.9-12.8,3.7C171.2,51.3,169.1,52.6,169.1,52.6L169.1,52.6z"/>
<path class="st0" d="M43.2,31.3c0,0-2.9-10.3-14.2-12.6c-4.9-1.5-15.5-2.3-19.5-10.3c0,0-0.4,15.2,11,22c3.1,1.4,10.6,5.4,20.3,2.8
	c1.7-0.5,2.2-1,2.2-1s-3.8-2.4-11-3.7c-3.3-0.8-8.5-2-12.1-4.4c-1.4-1-3.4-2.8-3.8-3.9c-0.4-0.6-0.3-1.1-0.3-1.1s2.7,4.4,11.5,6.4
	c2.1,0.5,9.7,1.9,12.8,3.7C41.1,29.9,43.2,31.3,43.2,31.3L43.2,31.3z"/>
<path class="st1" d="M43.1,52.9c0,0-12.4,14.7-18.3,10.8c-5.1-3.3-2.6-8.3-0.4-12.7c0.4-0.9,0.9-1.8,1.3-2.7
	C19.1,51.7,4,66.1,3.5,66.6c-0.3,0.5-1.4,0.1-2.3-0.7c-0.9-1-1.5-2.2-1.1-2.7l10.2-18.3c0.3-0.6,1.5-0.3,2.4,0.6
	c1,0.9,1.5,2.2,1.1,2.7L11,53.3c6.1-5.1,12.9-10.1,15.4-9.4h0.2c3.4,1,4,3.2,3.2,6c-0.3,1.3-1.1,2.7-1.9,4.4c-1.5,3-3.2,6.3-3.2,6.3
	c3.6,2.4,15.9-8.4,16-8.4c0.3-0.5,1.6-1.9,2.5-0.9C44.2,52.1,43.6,52.3,43.1,52.9L43.1,52.9z M71.4,52.9c-7.5,6.7-11.9,10.7-15,12.3
	c-5.2,2.7-9.2,1.1-9.1-4.4c-4.1,3.9-8.3,7.4-10.8,6.3c-0.9-0.3-1.6-1-2.3-1.7c-1.1-1.5-1.6-3.1-1.4-4.8c0.1-1.4,0.6-2.8,1.3-4.3
	c1.5-3.2,4.1-6.7,7.1-9.1c5.1-4.2,14.4-4.4,16.4,2.2c0.5,1.1,0.1,1.8-0.8,1.6s-2.1-1.3-2.5-2.3c-2.3-2.2-7.9,0.5-9.9,2.2
	c-4.2,3.4-6.6,7.5-7.9,12.7c4-1.1,14.3-13.2,14.3-13.2c0.5-0.5,1.5-0.1,2.5,0.9c0.8,0.9,1.3,1.9,0.9,2.5c-0.2,0.6-1.6,3.5-0.9,6.7
	c0.5,2.7,15.3-9.7,15.5-9.8c0.5-0.5,1.4-1,2.3-0.1C72,51.6,71.9,52.5,71.4,52.9L71.4,52.9z M115.7,32.5h-34c-2.4,3.6-4.8,7.4-7,11
	v0.1c0,0.5-0.2,0.7-0.5,0.7c-6.9,11.3-10.7,17.8-9.4,20c2,3.9,25.1-14.6,25.1-14.7c0.5-0.3,1.1-0.6,2,0.5c0.9,1,0.2,1.6-0.2,1.9
	c-0.1,0.1-25.9,25.6-31.5,15.4c-1.7-3.2,3.5-14.1,10.8-26.2c-0.1,0,0.7-1.3,0.7-1.3c0.2-8.6-28.9-7.5-28.9-7.5c-0.8,0-2.1-0.9-2.6-2
	c-0.7-1-0.6-1.9,0.2-1.9h38.5C88.4,13.7,97.9,0.3,98.1,0.2c0.3-0.5,1.5-0.2,2.4,0.8c0.9,0.9,1.4,2.2,1,2.6c0,0.1-8.3,11.6-17.2,24.9
	h29c0.8,0,2,0.9,2.6,1.9C116.6,31.6,116.5,32.5,115.7,32.5L115.7,32.5z M62.1,32c3.4,1.4,9,3.6,10.8,6c1.1-1.8,2.3-3.6,3.4-5.5
	L62.1,32L62.1,32z M120.7,52.5c-3.1,4-7.4,9.3-12,11.5c-4,1.9-9,1-9.7-3.9c-11.3,9.7-20.5,7.9-14.2-6c2-4.5,5.8-9.4,8.8-12.6
	c0.5-0.5,1.6,0,2.5,0.9c0.9,1,1.3,2.2,0.9,2.7c-8.6,9.9-9.3,16.7-8.5,17.4c1.4,1.1,10.1-4.4,16.3-14.8l0.3-0.5
	c0.5-0.5,1.6-0.1,2.5,0.9c0.9,0.9,1.4,2.2,0.9,2.6c0,0-0.2,0.3-0.8,0.8c-1.5,1.8-10,13.9-1.5,9.8c4.4-2.2,9.7-6.4,12.6-10.2
	c0.5-0.6,0.9-1.7,1.9-0.7C121.7,51.3,121.1,52,120.7,52.5L120.7,52.5z M146.5,52.8c-3.3,1-8.8,2.2-11.1,1.9c-3-0.2-3.9-1-6.4-4
	c-1.7-2-11.8,6.9-11.8,6.9c-0.2,0.1-6.1,10.1-6.7,11.1c-0.3,0.6-1.5,0.2-2.4-0.7c-1-0.9-1.5-2.2-1.1-2.7l16.3-26.3
	c0.3-0.6,1.5-0.2,2.4,0.7c1,0.9,1.5,2.2,1.1,2.7l-4.2,6.7c4-1.9,9.4-3.8,11.7-0.9c1,1.1,0.7,3.8,2.2,3.9c2.2,0.1,5.4-0.3,8.4-1.3
	c0.7-0.2,1.4-0.8,2,0.2C147.7,52.3,147.2,52.7,146.5,52.8L146.5,52.8z M173,53.4c-3.2,5.6-20.9,17.9-28.8,13.4
	c-3.9-2.2-6.3-6.7-5.4-11.1c0.6-2.8,2.3-5.8,4.5-8.4c2.3-2.5,4.9-4.9,7.4-6.7c3.3-2.3,6.4-3.6,7.6-3.4c1,0.2,1.9,0.8,2.7,1.7
	c1.1,1.3,1.6,2.7,1.4,4.1c-0.1,1-0.6,2-1.1,3.2c-1.3,2.4-3.5,4.9-6.3,6.3c-5.4,2.7-11.4,3.4-11.7,3.4c-7.7,16.6,23,2.5,26.5-3.9
	c0.3-0.7,1.5-1.5,2.5-0.6C173.4,52.2,173.4,52.7,173,53.4L173,53.4z M152.2,48.6c2.4-1.3,4.4-3.6,5.7-5.8c0.2-0.5,0.3-0.8,0.6-1.3
	c-1.3,0.6-2.7,1.5-4.4,2.7c-2.3,1.7-4.9,3.9-6.9,6.3C148.7,50.1,150.4,49.4,152.2,48.6L152.2,48.6z"/>
<path class="st2" d="M28.8,82.6c-0.4,0.7-1,1.3-1.7,1.7c-0.7,0.4-1.5,0.6-2.4,0.6c-0.7,0-1.3-0.1-1.8-0.4c-0.6-0.3-1-0.6-1.4-1.1
	v4.8h-1.7V75.5h1.6V77c0.4-0.5,0.9-0.9,1.4-1.2c0.6-0.3,1.2-0.4,1.9-0.4c0.9,0,1.7,0.2,2.4,0.6c0.7,0.4,1.3,1,1.7,1.7
	c0.4,0.7,0.6,1.5,0.6,2.5S29.2,81.9,28.8,82.6L28.8,82.6z M27.2,78.4c-0.3-0.5-0.6-0.9-1.1-1.1s-1-0.4-1.6-0.4
	c-0.6,0-1.1,0.1-1.6,0.4c-0.5,0.3-0.9,0.7-1.1,1.1c-0.3,0.5-0.4,1.1-0.4,1.7s0.1,1.2,0.4,1.7c0.3,0.5,0.6,0.9,1.1,1.2
	c0.5,0.3,1,0.4,1.6,0.4c0.6,0,1.1-0.1,1.6-0.4s0.9-0.7,1.1-1.2c0.3-0.5,0.4-1.1,0.4-1.7C27.7,79.5,27.5,78.9,27.2,78.4L27.2,78.4z
	 M35.9,77c-0.9,0-1.6,0.3-2.1,0.8c-0.5,0.5-0.8,1.3-0.8,2.3v4.6h-1.7v-9.3h1.6v1.6c0.3-0.5,0.7-1,1.3-1.2c0.6-0.3,1.3-0.4,2.1-0.4
	V77C36.2,77,36.1,77,35.9,77L35.9,77z M46.1,82.6c-0.4,0.7-1,1.3-1.7,1.7s-1.6,0.6-2.5,0.6s-1.8-0.2-2.5-0.6c-0.7-0.4-1.3-1-1.7-1.7
	c-0.4-0.7-0.6-1.5-0.6-2.4s0.2-1.7,0.6-2.5c0.4-0.7,1-1.3,1.7-1.7c0.7-0.4,1.6-0.6,2.5-0.6s1.8,0.2,2.5,0.6s1.3,1,1.7,1.7
	c0.4,0.7,0.6,1.5,0.6,2.5C46.8,81.1,46.6,81.9,46.1,82.6L46.1,82.6z M44.7,78.4c-0.3-0.5-0.6-0.9-1.1-1.1s-1-0.4-1.6-0.4
	c-0.6,0-1.1,0.1-1.6,0.4s-0.9,0.6-1.1,1.1c-0.3,0.5-0.4,1.1-0.4,1.7c0,0.6,0.1,1.2,0.4,1.7s0.6,0.9,1.1,1.2c0.5,0.3,1,0.4,1.6,0.4
	c0.6,0,1.1-0.1,1.6-0.4s0.8-0.7,1.1-1.2s0.4-1.1,0.4-1.7C45.1,79.5,44.9,78.9,44.7,78.4L44.7,78.4z M55.9,84.8v-1.5
	c-0.4,0.5-0.9,0.9-1.4,1.2c-0.6,0.3-1.2,0.4-1.9,0.4c-0.9,0-1.7-0.2-2.4-0.6c-0.7-0.4-1.3-1-1.7-1.7c-0.4-0.7-0.6-1.5-0.6-2.5
	c0-0.9,0.2-1.8,0.6-2.5c0.4-0.7,1-1.3,1.7-1.7c0.7-0.4,1.5-0.6,2.4-0.6c0.7,0,1.3,0.1,1.8,0.4s1,0.6,1.4,1.1v-5.1h1.7v13L55.9,84.8
	L55.9,84.8z M55.4,78.4c-0.3-0.5-0.6-0.9-1.1-1.1s-1-0.4-1.6-0.4c-0.6,0-1.1,0.1-1.6,0.4s-0.9,0.6-1.1,1.1c-0.3,0.5-0.4,1.1-0.4,1.7
	c0,0.6,0.1,1.2,0.4,1.7s0.6,0.9,1.1,1.2c0.5,0.3,1,0.4,1.6,0.4c0.6,0,1.1-0.1,1.6-0.4c0.5-0.3,0.9-0.7,1.1-1.2
	c0.3-0.5,0.4-1.1,0.4-1.7C55.8,79.5,55.7,78.9,55.4,78.4L55.4,78.4z M67.4,84.8v-1.4c-0.3,0.5-0.8,0.9-1.3,1.1
	c-0.6,0.3-1.2,0.4-1.8,0.4c-1.2,0-2.2-0.3-2.9-1c-0.7-0.7-1.1-1.7-1.1-3v-5.4h1.7v5.1c0,0.9,0.2,1.6,0.6,2c0.4,0.5,1,0.7,1.9,0.7
	c0.9,0,1.6-0.3,2.1-0.8s0.8-1.3,0.8-2.3v-4.8H69v9.3L67.4,84.8L67.4,84.8z M74.2,83.1c0.3,0.3,0.6,0.4,1.1,0.4c0.5,0,1-0.1,1.3-0.4
	l0.5,1.2c-0.3,0.2-0.5,0.4-0.9,0.5c-0.4,0.1-0.7,0.2-1.1,0.2c-0.9,0-1.7-0.3-2.2-0.8s-0.8-1.2-0.8-2.2v-5.1h-1.6v-1.4h1.6v-2h1.7v2
	h2.7v1.4h-2.7v5C73.8,82.4,73.9,82.8,74.2,83.1L74.2,83.1z M86.6,82.6c-0.4,0.7-1,1.3-1.7,1.7s-1.6,0.6-2.5,0.6s-1.8-0.2-2.5-0.6
	s-1.3-1-1.7-1.7c-0.4-0.7-0.6-1.5-0.6-2.4s0.2-1.7,0.6-2.5s1-1.3,1.7-1.7c0.7-0.4,1.6-0.6,2.5-0.6c0.9,0,1.8,0.2,2.5,0.6
	s1.3,1,1.7,1.7c0.4,0.7,0.6,1.5,0.6,2.5C87.3,81.1,87.1,81.9,86.6,82.6L86.6,82.6z M85.2,78.4c-0.3-0.5-0.6-0.9-1.1-1.1
	c-0.5-0.3-1-0.4-1.6-0.4c-0.6,0-1.1,0.1-1.6,0.4s-0.9,0.6-1.1,1.1c-0.3,0.5-0.4,1.1-0.4,1.7c0,0.6,0.1,1.2,0.4,1.7s0.6,0.9,1.1,1.2
	c0.5,0.3,1,0.4,1.6,0.4c0.6,0,1.1-0.1,1.6-0.4s0.8-0.7,1.1-1.2s0.4-1.1,0.4-1.7C85.6,79.5,85.4,78.9,85.2,78.4L85.2,78.4z
	 M92.2,76.9c-0.7,0-1.3,0.1-1.6,0.4S90,77.7,90,78.1c0,0.3,0.1,0.5,0.3,0.7c0.2,0.2,0.5,0.3,0.8,0.4c0.3,0.1,0.7,0.2,1.3,0.3
	c0.8,0.1,1.4,0.3,1.8,0.4c0.5,0.1,0.9,0.4,1.2,0.7c0.3,0.4,0.5,0.8,0.5,1.5c0,0.8-0.4,1.5-1.1,2s-1.7,0.7-2.9,0.7
	c-0.8,0-1.5-0.1-2.2-0.3c-0.7-0.2-1.3-0.5-1.6-0.8l0.7-1.3c0.4,0.3,0.9,0.5,1.5,0.7c0.6,0.2,1.2,0.3,1.8,0.3c1.5,0,2.2-0.4,2.2-1.3
	c0-0.3-0.1-0.5-0.3-0.7c-0.2-0.2-0.5-0.3-0.7-0.4c-0.3-0.1-0.7-0.2-1.3-0.3c-0.8-0.1-1.4-0.3-1.8-0.4s-0.9-0.4-1.2-0.8
	s-0.5-0.9-0.5-1.5c0-0.8,0.4-1.5,1-2c0.7-0.5,1.6-0.8,2.8-0.8c0.6,0,1.2,0.1,1.9,0.2c0.6,0.1,1.1,0.4,1.5,0.6l-0.7,1.3
	C94.1,77.1,93.2,76.9,92.2,76.9L92.2,76.9z M109.2,84.8v-5.1c0-0.9-0.2-1.6-0.6-2c-0.4-0.5-1-0.7-1.9-0.7c-0.9,0-1.6,0.3-2.2,0.8
	s-0.8,1.3-0.8,2.3v4.8H102v-9.3h1.6v1.4c0.3-0.5,0.8-0.9,1.4-1.1c0.6-0.3,1.2-0.4,2-0.4c1.2,0,2.1,0.3,2.8,1c0.7,0.7,1,1.7,1,3v5.4
	L109.2,84.8L109.2,84.8z M119.4,84.8v-1.2c-0.3,0.4-0.7,0.8-1.2,1c-0.5,0.2-1.1,0.3-1.9,0.3c-1,0-1.9-0.3-2.5-0.8s-0.9-1.2-0.9-2
	s0.3-1.5,0.9-2c0.6-0.5,1.5-0.7,2.8-0.7h2.7v-0.3c0-0.7-0.2-1.3-0.6-1.7s-1-0.6-1.9-0.6c-0.5,0-1.1,0.1-1.6,0.3
	c-0.5,0.2-1,0.4-1.3,0.7l-0.7-1.3c0.5-0.4,1-0.7,1.7-0.9c0.7-0.2,1.4-0.3,2.1-0.3c1.3,0,2.3,0.3,3,1c0.7,0.6,1,1.6,1,2.8v5.6
	L119.4,84.8L119.4,84.8z M119.3,80.7h-2.6c-1.4,0-2.1,0.5-2.1,1.4c0,0.5,0.2,0.8,0.5,1.1c0.4,0.3,0.9,0.4,1.5,0.4
	c0.6,0,1.2-0.1,1.7-0.4c0.5-0.3,0.8-0.7,1-1.2L119.3,80.7L119.3,80.7z M126.1,83.1c0.3,0.3,0.6,0.4,1.1,0.4c0.5,0,1-0.1,1.3-0.4
	l0.5,1.2c-0.3,0.2-0.5,0.4-0.9,0.5c-0.4,0.1-0.7,0.2-1.1,0.2c-0.9,0-1.7-0.3-2.2-0.8S124,82.9,124,82v-5.1h-1.6v-1.4h1.6v-2h1.7v2
	h2.7v1.4h-2.7v5C125.7,82.4,125.8,82.8,126.1,83.1L126.1,83.1z M137.7,84.8v-1.4c-0.3,0.5-0.8,0.9-1.3,1.1c-0.6,0.3-1.2,0.4-1.8,0.4
	c-1.2,0-2.2-0.3-2.9-1c-0.7-0.7-1.1-1.7-1.1-3v-5.4h1.7v5.1c0,0.9,0.2,1.6,0.6,2c0.4,0.5,1,0.7,1.9,0.7c0.9,0,1.6-0.3,2.1-0.8
	s0.8-1.3,0.8-2.3v-4.8h1.7v9.3L137.7,84.8L137.7,84.8z M146.8,77c-0.9,0-1.6,0.3-2.1,0.8s-0.8,1.3-0.8,2.3v4.6h-1.7v-9.3h1.6v1.6
	c0.3-0.5,0.7-1,1.3-1.2c0.6-0.3,1.3-0.4,2.1-0.4V77C147.1,77,147,77,146.8,77L146.8,77z M154.6,84.8v-1.2c-0.3,0.4-0.7,0.8-1.2,1
	c-0.5,0.2-1.1,0.3-1.9,0.3c-1,0-1.9-0.3-2.5-0.8s-0.9-1.2-0.9-2s0.3-1.5,0.9-2c0.6-0.5,1.5-0.7,2.8-0.7h2.7v-0.3
	c0-0.7-0.2-1.3-0.6-1.7s-1-0.6-1.9-0.6c-0.5,0-1.1,0.1-1.6,0.3c-0.5,0.2-1,0.4-1.3,0.7l-0.7-1.3c0.5-0.4,1-0.7,1.7-0.9
	c0.7-0.2,1.4-0.3,2.1-0.3c1.3,0,2.3,0.3,3,1c0.7,0.6,1,1.6,1,2.8v5.6L154.6,84.8L154.6,84.8z M154.6,80.7H152
	c-1.4,0-2.1,0.5-2.1,1.4c0,0.5,0.2,0.8,0.5,1.1c0.4,0.3,0.9,0.4,1.5,0.4c0.6,0,1.2-0.1,1.7-0.4c0.5-0.3,0.8-0.7,1-1.2L154.6,80.7
	L154.6,80.7z M160.7,73.4c-0.2,0.2-0.5,0.3-0.8,0.3c-0.3,0-0.6-0.1-0.8-0.3c-0.2-0.2-0.3-0.5-0.3-0.8s0.1-0.6,0.3-0.8
	c0.2-0.2,0.5-0.3,0.8-0.3c0.3,0,0.6,0.1,0.8,0.3c0.2,0.2,0.3,0.5,0.3,0.8C161,72.9,160.9,73.2,160.7,73.4L160.7,73.4z M160.7,84.8
	H159v-9.3h1.7V84.8L160.7,84.8z M166.5,76.9c-0.7,0-1.3,0.1-1.6,0.4s-0.6,0.5-0.6,0.9c0,0.3,0.1,0.5,0.3,0.7
	c0.2,0.2,0.5,0.3,0.8,0.4c0.3,0.1,0.7,0.2,1.3,0.3c0.8,0.1,1.4,0.3,1.8,0.4c0.5,0.1,0.9,0.4,1.2,0.7c0.3,0.4,0.5,0.8,0.5,1.5
	c0,0.8-0.4,1.5-1.1,2s-1.7,0.7-2.9,0.7c-0.8,0-1.5-0.1-2.2-0.3c-0.7-0.2-1.3-0.5-1.6-0.8l0.7-1.3c0.4,0.3,0.9,0.5,1.5,0.7
	c0.6,0.2,1.2,0.3,1.8,0.3c1.5,0,2.2-0.4,2.2-1.3c0-0.3-0.1-0.5-0.3-0.7c-0.2-0.2-0.5-0.3-0.7-0.4c-0.3-0.1-0.7-0.2-1.3-0.3
	c-0.8-0.1-1.4-0.3-1.8-0.4s-0.9-0.4-1.2-0.8s-0.5-0.9-0.5-1.5c0-0.8,0.4-1.5,1-2c0.7-0.5,1.6-0.8,2.8-0.8c0.6,0,1.2,0.1,1.9,0.2
	s1.1,0.4,1.5,0.6l-0.7,1.3C168.5,77.1,167.6,76.9,166.5,76.9L166.5,76.9z M173.2,84.6c-0.2,0.2-0.5,0.3-0.8,0.3
	c-0.3,0-0.6-0.1-0.8-0.3s-0.4-0.5-0.4-0.9c0-0.3,0.1-0.6,0.4-0.9s0.5-0.3,0.8-0.3s0.6,0.1,0.8,0.3s0.3,0.5,0.3,0.9
	C173.5,84,173.4,84.3,173.2,84.6L173.2,84.6z"/>
</svg>
